<svg xmlns="http://www.w3.org/2000/svg" viewBox="0 0 256 257"><defs><linearGradient id="a" x1="-.828%" x2="57.636%" y1="7.652%" y2="78.411%"><stop offset="0%" stop-color="#41D1FF"/><stop offset="100%" stop-color="#BD34FE"/></linearGradient><linearGradient id="b" x1="43.376%" x2="50.316%" y1="2.242%" y2="89.03%"><stop offset="0%" stop-color="#FFEA83"/><stop offset="8.333%" stop-color="#FFDD35"/><stop offset="100%" stop-color="#FFA800"/></linearGradient></defs><path fill="url(#a)" d="m255.153 37.938-117.01 208.744c-2.483 4.425-8.862 4.466-11.396.078L.875 37.958c-2.747-4.652 1.371-10.287 6.683-9.405l120.385 20.832a6.537 6.537 0 0 0 2.322-.004l117.851-20.69c5.337-.937 9.478 4.643 6.725 9.307Z"/><path fill="url(#b)" d="m185.432.063-94.55 17.007a3.268 3.268 0 0 0-2.634 3.014l-5.474 92.456a3.268 3.268 0 0 0 3.997 3.378l26.006-5.866c2.318-.523 4.413 1.507 3.936 3.838l-7.724 37.93c-.495 2.435 1.782 4.5 4.151 3.78l16.063-4.88c2.372-.72 4.652 1.348 4.15 3.786l-12.278 63.509c-.732 3.786 4.135 5.927 6.35 2.591l1.313-1.997 76.273-170.582c1.215-2.716-.88-5.727-3.873-5.225l-26.706 4.485c-2.396.403-4.435-1.77-3.759-4.114l17.37-60.207c.677-2.344-1.37-4.517-3.769-4.113Z"/></svg>
